HIERARCHY
ROOT Hips
{
 OFFSET 0.000000 0.000000 0.000000
 CHANNELS 6 Xposition Yposition Zposition Yrotation Xrotation Zrotation
 JOINT Chest
 {
  OFFSET 0.000000 9.585900 0.002600
  CHANNELS 3 Yrotation Xrotation Zrotation
  JOINT Chest2
  {
   OFFSET 0.000000 9.601200 -0.005300
   CHANNELS 3 Yrotation Xrotation Zrotation
   JOINT Chest3
   {
    OFFSET 0.000000 9.561800 0.000000
    CHANNELS 3 Yrotation Xrotation Zrotation
    JOINT Chest4
    {
     OFFSET 0.000000 9.552100 0.000000
     CHANNELS 3 Yrotation Xrotation Zrotation
     JOINT Neck
     {
      OFFSET 0.000000 14.453000 0.000000
      CHANNELS 3 Yrotation Xrotation Zrotation
      JOINT Head
      {
       OFFSET 0.000000 8.936500 -0.011300
       CHANNELS 3 Yrotation Xrotation Zrotation
       End Site
       {
        OFFSET 0.000000 17.073600 -0.006000
       }
      }
     }
     JOINT RightCollar
     {
      OFFSET -2.921100 9.558500 0.000000
      CHANNELS 3 Yrotation Xrotation Zrotation
      JOINT RightShoulder
      {
       OFFSET -13.519700 0.000000 0.000000
       CHANNELS 3 Yrotation Xrotation Zrotation
       JOINT RightElbow
       {
        OFFSET 0.000000 -29.696600 0.000000
        CHANNELS 3 Yrotation Xrotation Zrotation
        JOINT RightWrist
        {
         OFFSET 0.000000 -24.004700 0.000000
         CHANNELS 3 Yrotation Xrotation Zrotation
         End Site
         {
          OFFSET 0.000000 -17.728500 0.000000
         }
        }
       }
      }
     }
     JOINT LeftCollar
     {
      OFFSET 2.921100 9.558500 0.000000
      CHANNELS 3 Yrotation Xrotation Zrotation
      JOINT LeftShoulder
      {
       OFFSET 13.519700 0.000000 0.000000
       CHANNELS 3 Yrotation Xrotation Zrotation
       JOINT LeftElbow
       {
        OFFSET 0.000000 -29.696600 0.000000
        CHANNELS 3 Yrotation Xrotation Zrotation
        JOINT LeftWrist
        {
         OFFSET 0.000000 -24.004700 0.000000
         CHANNELS 3 Yrotation Xrotation Zrotation
         End Site
         {
          OFFSET 0.000000 -17.728500 0.000000
         }
        }
       }
      }
     }
    }
   }
  }
 }
 JOINT RightHip
 {
  OFFSET -7.771700 -0.012900 -0.001300
  CHANNELS 3 Yrotation Xrotation Zrotation
  JOINT RightKnee
  {
   OFFSET 0.000000 -40.869800 0.001200
   CHANNELS 3 Yrotation Xrotation Zrotation
   JOINT RightAnkle
   {
    OFFSET 0.000000 -39.717900 0.002100
    CHANNELS 3 Yrotation Xrotation Zrotation
    JOINT RightToe
    {
     OFFSET 0.000000 -4.965400 11.033500
     CHANNELS 3 Yrotation Xrotation Zrotation
     End Site
     {
      OFFSET 0.000000 -1.423100 5.872300
     }
    }
   }
  }
 }
 JOINT LeftHip
 {
  OFFSET 7.771700 -0.012900 -0.001300
  CHANNELS 3 Yrotation Xrotation Zrotation
  JOINT LeftKnee
  {
   OFFSET 0.000000 -40.869800 0.001200
   CHANNELS 3 Yrotation Xrotation Zrotation
   JOINT LeftAnkle
   {
    OFFSET 0.000000 -39.717900 0.002100
    CHANNELS 3 Yrotation Xrotation Zrotation
    JOINT LeftToe
    {
     OFFSET 0.000000 -4.965400 11.033500
     CHANNELS 3 Yrotation Xrotation Zrotation
     End Site
     {
      OFFSET 0.000000 -1.423100 5.872300
     }
    }
   }
  }
 }
}
MOTION
Frames: 13
Frame Time: 0.008333
0.000000 85.388000 0.000000 0.000000 -5.767877 0.000000 0.000000 11.653817 0.000000 0.000000 -5.885947 0.000000 0.000000 -0.000000 0.000000 0.000000 -0.000000 0.000000 0.000000 12.528835 0.000000 0.000000 0.711642 0.000000 0.000000 -0.000000 0.000000 0.000000 0.000000 -90.000000 0.000000 -2.309062 0.000000 0.000000 2.309062 0.000000 0.000000 -0.000000 0.000000 0.000000 -0.000000 90.000000 0.000000 -2.309062 0.000000 0.000000 2.309062 0.000000 0.000000 8.520406 0.000000 0.000000 1.905762 0.000000 -0.000000 -4.658285 0.000000 0.000000 -0.000000 0.000000 0.000000 8.520406 0.000000 0.000000 1.905762 0.000000 -0.000000 -4.658285 0.000000 0.000000 -0.000000 0.000000
-41.809483 57.890345 12.179433 177.334831 -50.509043 -3.631834 3.760783 22.019250 3.438230 1.933728 12.616027 1.746648 2.494590 15.757631 2.302448 1.931226 12.614322 1.754667 -1.217755 18.000355 2.427567 -3.013330 -2.284311 4.943624 -0.345776 7.152454 -0.204874 -23.015513 -11.391581 0.840517 -52.864904 -16.627101 118.703059 -15.140888 -27.829497 -28.330392 -9.358286 4.359566 0.746315 15.239937 -9.053534 3.414579 60.264999 -24.344568 -111.981285 25.981372 -27.334406 18.885002 4.022693 -21.035490 -2.435366 -33.777244 73.459801 -37.470138 6.021353 -14.271198 11.379825 -0.003126 0.007664 0.006694 -7.578451 -18.375722 5.958287 87.548723 81.073491 87.444996 1.229045 -21.518178 -19.127222 0.001999 0.004545 0.001016
-41.810232 57.891423 12.179142 177.340124 -50.516916 -3.635222 3.763691 22.028346 3.421982 1.937189 12.619349 1.738097 2.497558 15.750221 2.295711 1.933239 12.615366 1.746844 -1.073692 17.925191 2.484648 -2.771324 -2.454654 5.014648 -0.317709 7.120077 -0.251658 -23.070997 -11.192162 0.837710 -52.936356 -16.611233 118.696816 -15.184914 -27.794083 -28.241271 -9.401938 4.223539 0.732888 15.269079 -8.803984 3.436331 60.311378 -24.370312 -111.951911 26.003467 -27.385804 18.943725 4.023936 -21.031749 -2.436604 -33.794789 73.465440 -37.484870 6.036186 -14.275174 11.376831 -0.003819 -0.002208 0.004571 -7.583813 -18.368205 5.950602 87.523329 81.069236 87.420521 1.234043 -21.508062 -19.127676 0.000825 0.001693 -0.001510
-41.810774 57.891669 12.179522 177.342894 -50.518512 -3.637809 3.765330 22.032111 3.413855 1.939169 12.621554 1.733598 2.500508 15.755481 2.272184 1.933965 12.642738 1.696263 -0.901783 17.824115 2.598145 -2.511712 -2.626490 5.105919 -0.283360 7.025972 -0.257594 -23.121625 -10.971323 0.852866 -52.986873 -16.614203 118.693271 -15.213672 -27.779236 -28.187639 -9.446840 4.026865 0.768688 15.301687 -8.501927 3.457189 60.361546 -24.396922 -111.925172 26.034001 -27.425702 19.008256 4.022556 -21.031975 -2.435300 -33.796929 73.468881 -37.486280 6.036322 -14.276497 11.375382 -0.011931 -0.006270 0.002934 -7.589660 -18.367997 5.946973 87.536620 81.063612 87.430856 1.235953 -21.504613 -19.125476 -0.001380 0.000125 -0.004612
-41.811145 57.891851 12.179870 177.345797 -50.519528 -3.640745 3.767510 22.037107 3.405110 1.941222 12.624179 1.728897 2.503431 15.769938 2.243738 1.939906 12.662337 1.669649 -0.730234 17.728471 2.700989 -2.240425 -2.795295 5.217629 -0.248817 6.906679 -0.285259 -23.171756 -10.727063 0.876454 -53.033182 -16.624765 118.697574 -15.237356 -27.778441 -28.159974 -9.502515 3.818166 0.797363 15.332180 -8.168142 3.456144 60.416514 -24.417344 -111.894816 26.072778 -27.457439 19.061721 4.019906 -21.032695 -2.433937 -33.821110 73.469631 -37.503515 6.025650 -14.278798 11.367966 -0.001375 -0.006981 0.006076 -7.599035 -18.366957 5.947475 87.556329 81.057620 87.444075 1.232106 -21.503936 -19.123622 -0.001544 -0.000881 -0.006479
-41.811695 57.891537 12.180430 177.347611 -50.516633 -3.640705 3.783106 22.055874 3.371957 1.953655 12.640916 1.701578 2.510480 15.754796 2.267910 1.946243 12.671156 1.654197 -0.558682 17.642323 2.801789 -1.961870 -2.959478 5.349448 -0.209634 6.781189 -0.327485 -23.231743 -10.453268 0.909269 -53.085468 -16.636524 118.703649 -15.266218 -27.774123 -28.135011 -9.571031 3.620626 0.827073 15.363716 -7.815735 3.427493 60.472675 -24.428161 -111.858837 26.121104 -27.487308 19.095165 4.016977 -21.037740 -2.433496 -33.830760 73.470821 -37.514010 6.019561 -14.281597 11.370082 0.006987 -0.007381 0.004257 -7.608338 -18.369121 5.944035 87.522334 81.056445 87.409037 1.236640 -21.496966 -19.129610 -0.001023 -0.000547 -0.005114
-41.812190 57.890954 12.180983 177.347256 -50.511416 -3.638080 3.793442 22.065126 3.351395 1.957831 12.641839 1.698084 2.514511 15.768768 2.245410 1.954344 12.675829 1.639336 -0.382667 17.558545 2.913503 -1.678500 -3.119094 5.499625 -0.160993 6.659996 -0.379044 -23.302441 -10.161341 0.965315 -53.144206 -16.647916 118.708986 -15.293310 -27.772561 -28.115639 -9.651218 3.416966 0.859999 15.411925 -7.433685 3.382951 60.515705 -24.432655 -111.816891 26.180171 -27.521402 19.111703 4.014149 -21.045229 -2.433552 -33.841299 73.467152 -37.524907 6.024596 -14.281783 11.368937 0.008967 -0.005958 0.002613 -7.620765 -18.373494 5.936643 87.503768 81.047003 87.383630 1.239004 -21.490976 -19.130510 -0.003106 0.000388 -0.007690
-41.812582 57.890519 12.181143 177.349300 -50.506735 -3.636721 3.793751 22.064657 3.343627 1.959728 12.643196 1.695023 2.525451 15.793771 2.202035 1.950193 12.675547 1.629277 -0.202812 17.477883 3.033394 -1.390637 -3.272986 5.663252 -0.103073 6.549674 -0.450411 -23.379849 -9.851831 1.048065 -53.213828 -16.657417 118.713376 -15.317736 -27.773666 -28.098587 -9.734888 3.175180 0.881331 15.487051 -6.992434 3.335946 60.533122 -24.440419 -111.768065 26.242512 -27.565512 19.128024 4.011707 -21.050644 -2.435533 -33.852152 73.468741 -37.537065 6.029688 -14.292400 11.370332 0.007431 -0.000730 0.000035 -7.627245 -18.379665 5.934402 87.510135 81.040616 87.385848 1.236417 -21.486262 -19.127995 -0.002560 -0.000659 -0.009531
-41.813323 57.890025 12.180993 177.351894 -50.500976 -3.632886 3.799479 22.071305 3.318678 1.963848 12.648901 1.682443 2.530257 15.801143 2.186435 1.950449 12.665994 1.634170 -0.031311 17.404051 3.145314 -1.102941 -3.417193 5.835347 -0.051030 6.439558 -0.550207 -23.454884 -9.514712 1.138659 -53.291402 -16.665237 118.715984 -15.338471 -27.771557 -28.081934 -9.820581 2.878275 0.871056 15.587533 -6.475677 3.295384 60.527065 -24.455472 -111.713312 26.298973 -27.620476 19.160769 4.010356 -21.056629 -2.441158 -33.868332 73.470563 -37.554124 6.033868 -14.300708 11.370152 0.001671 -0.000331 -0.000428 -7.630342 -18.387013 5.929405 87.512151 81.037422 87.384996 1.234276 -21.481640 -19.124158 -0.002786 -0.000815 -0.008843
-41.814227 57.889041 12.180912 177.354704 -50.490416 -3.627991 3.796131 22.072162 3.291832 1.965774 12.651528 1.668195 2.519354 15.810535 2.125199 1.987462 12.644390 1.708929 0.117118 17.337344 3.235026 -0.821743 -3.550495 6.012984 -0.022270 6.313008 -0.676879 -23.521135 -9.139590 1.213212 -53.372489 -16.675305 118.718527 -15.356072 -27.767801 -28.064650 -9.914224 2.549188 0.824103 15.708559 -5.911375 3.257002 60.502972 -24.473893 -111.657193 26.346880 -27.685860 19.217677 4.007894 -21.068818 -2.447104 -33.892936 73.471015 -37.581211 6.038730 -14.306186 11.369865 0.009603 -0.001703 0.000981 -7.633244 -18.399334 5.923611 87.517335 81.038141 87.386814 1.233884 -21.480045 -19.121749 -0.002406 -0.001586 -0.008781
-41.814758 57.887896 12.180717 177.356948 -50.477085 -3.625054 3.796185 22.068007 3.274027 1.954114 12.654841 1.625326 2.526985 15.798351 2.137371 1.992869 12.648327 1.694235 0.283864 17.264911 3.368001 -0.550026 -3.675745 6.194100 0.017396 6.154053 -0.761418 -23.583668 -8.725967 1.269718 -53.456899 -16.690804 118.723203 -15.372681 -27.768002 -28.048943 -9.986677 2.244550 0.824718 15.841811 -5.362381 3.200930 60.463791 -24.489018 -111.604008 26.385061 -27.763478 19.303435 4.006099 -21.084471 -2.452562 -33.910237 73.473646 -37.600210 6.041545 -14.308101 11.371051 0.008340 -0.006138 0.000336 -7.637837 -18.415161 5.921501 87.538570 81.040099 87.403752 1.233682 -21.481524 -19.118016 -0.002384 0.000158 -0.008695
-41.814932 57.887138 12.179984 177.356728 -50.464817 -3.622799 3.791270 22.064539 3.251932 1.950614 12.649801 1.614483 2.534255 15.793642 2.143189 1.946426 12.643237 1.614290 0.492006 17.204985 3.542412 -0.292375 -3.794710 6.376830 0.099446 5.993276 -0.808751 -23.650523 -8.285536 1.324654 -53.547579 -16.712263 118.733809 -15.388261 -27.774333 -28.039112 -10.016077 2.032487 0.887211 15.979620 -4.887832 3.107568 60.415614 -24.492430 -111.551226 26.415900 -27.848445 19.414041 4.005525 -21.096438 -2.454891 -33.914532 73.474418 -37.605841 6.043474 -14.308772 11.373161 0.007254 -0.011249 -0.000186 -7.640508 -18.426656 5.920914 87.532842 81.039250 87.394569 1.233584 -21.482710 -19.115624 -0.005974 0.003325 -0.006786
-41.815502 57.886148 12.179164 177.355028 -50.448411 -3.617917 3.782814 22.054040 3.226346 1.951570 12.650239 1.605566 2.539254 15.785672 2.148445 1.946652 12.642191 1.608920 0.626771 17.147024 3.647049 -0.054868 -3.906107 6.559206 0.131454 5.847033 -0.929470 -23.726103 -7.846921 1.399372 -53.644347 -16.736265 118.752350 -15.402953 -27.783927 -28.032248 -10.090336 1.896836 0.917375 16.118643 -4.513877 2.970116 60.363036 -24.478979 -111.493985 26.441558 -27.933547 19.538820 4.003404 -21.113702 -2.460201 -33.911387 73.478598 -37.606757 6.045461 -14.311296 11.374434 0.008327 -0.012533 -0.000310 -7.642775 -18.442417 5.921098 87.512645 81.039874 87.371344 1.226452 -21.483402 -19.109282 -0.002789 0.005022 -0.008343
